<svg width="53" height="52" viewBox="0 0 53 52" fill="none" xmlns="http://www.w3.org/2000/svg">
<path d="M26.5029 0.688357C12.1362 0.682547 0.5 12.313 0.5 26.668C0.5 38.0196 7.77919 47.669 17.9166 51.2128C19.2818 51.5555 19.0727 50.5854 19.0727 49.9231V45.4208C11.1893 46.3445 10.8698 41.1276 10.3411 40.2562C9.2722 38.4321 6.74511 37.9673 7.50034 37.0959C9.29544 36.1722 11.1254 37.3283 13.2458 40.4596C14.7795 42.731 17.7714 42.3476 19.2876 41.97C19.6188 40.6048 20.3275 39.3848 21.3035 38.4379C13.1355 36.9739 9.73115 31.9894 9.73115 26.0638C9.73115 23.1882 10.6781 20.5449 12.5371 18.4129C11.352 14.8982 12.6475 11.8889 12.8218 11.4416C16.197 11.1395 19.7059 13.8583 19.9789 14.0732C21.896 13.5562 24.0862 13.2832 26.5378 13.2832C29.001 13.2832 31.1969 13.5678 33.1314 14.0907C33.7879 13.591 37.0412 11.2557 40.1782 11.5403C40.3467 11.9877 41.6132 14.9272 40.4978 18.3954C42.38 20.5333 43.3386 23.1998 43.3386 26.0813C43.3386 32.0185 39.911 37.0088 31.7198 38.4495C32.4214 39.1395 32.9784 39.9623 33.3585 40.87C33.7385 41.7777 33.9339 42.752 33.9331 43.7361V50.2716C33.9796 50.7945 33.9331 51.3115 34.8045 51.3115C45.093 47.8433 52.5 38.1242 52.5 26.6738C52.5 12.313 40.858 0.688357 26.5029 0.688357V0.688357Z" fill="currentColor"/>
</svg>
