<svg width="53" height="52" viewBox="0 0 53 52" fill="none" xmlns="http://www.w3.org/2000/svg">
    <path d="M34.3 26C34.3 28.0687 33.4782 30.0527 32.0154 31.5155C30.5526 32.9783 28.5687 33.8 26.5 33.8C24.4313 33.8 22.4473 32.9783 20.9845 31.5155C19.5218 30.0527 18.7 28.0687 18.7 26C18.7 25.5554 18.7468 25.1212 18.8274 24.7H16.1V35.0922C16.1 35.815 16.685 36.4 17.4078 36.4H35.5948C35.9412 36.3994 36.2732 36.2613 36.5179 36.0161C36.7625 35.7709 36.9 35.4386 36.9 35.0922V24.7H34.1726C34.2532 25.1212 34.3 25.5554 34.3 26V26ZM26.5 31.2C27.183 31.1999 27.8593 31.0652 28.4903 30.8036C29.1213 30.5421 29.6946 30.1588 30.1775 29.6757C30.6603 29.1926 31.0433 28.6191 31.3046 27.988C31.5658 27.3569 31.7001 26.6805 31.7 25.9974C31.6998 25.3144 31.5651 24.6381 31.3036 24.0071C31.042 23.3761 30.6587 22.8028 30.1756 22.3199C29.6925 21.8371 29.119 21.4541 28.4879 21.1929C27.8568 20.9316 27.1804 20.7973 26.4974 20.7974C25.1179 20.7978 23.7951 21.3461 22.8199 22.3218C21.8447 23.2975 21.297 24.6206 21.2974 26C21.2977 27.3795 21.846 28.7023 22.8217 29.6775C23.7974 30.6527 25.1205 31.2004 26.5 31.2V31.2ZM32.74 20.54H35.8574C36.0645 20.54 36.2632 20.4579 36.4098 20.3117C36.5565 20.1655 36.6393 19.9671 36.64 19.76V16.6426C36.64 16.4351 36.5575 16.236 36.4108 16.0893C36.264 15.9425 36.0649 15.86 35.8574 15.86H32.74C32.5324 15.86 32.3334 15.9425 32.1866 16.0893C32.0398 16.236 31.9574 16.4351 31.9574 16.6426V19.76C31.96 20.189 32.311 20.54 32.74 20.54V20.54ZM26.5 1.04004C19.8802 1.04004 13.5315 3.66975 8.85059 8.35065C4.16968 13.0316 1.53998 19.3802 1.53998 26C1.53998 32.6198 4.16968 38.9685 8.85059 43.6494C13.5315 48.3303 19.8802 50.96 26.5 50.96C29.7778 50.96 33.0235 50.3144 36.0518 49.0601C39.08 47.8057 41.8316 45.9672 44.1494 43.6494C46.4671 41.3317 48.3057 38.5801 49.56 35.5518C50.8144 32.5235 51.46 29.2778 51.46 26C51.46 22.7222 50.8144 19.4765 49.56 16.4483C48.3057 13.42 46.4671 10.6684 44.1494 8.35065C41.8316 6.0329 39.08 4.19436 36.0518 2.94001C33.0235 1.68565 29.7778 1.04004 26.5 1.04004V1.04004ZM39.5 36.1114C39.5 37.7 38.2 39 36.6114 39H16.3886C14.8 39 13.5 37.7 13.5 36.1114V15.8886C13.5 14.3 14.8 13 16.3886 13H36.6114C38.2 13 39.5 14.3 39.5 15.8886V36.1114V36.1114Z"
          fill="currentColor"/>
</svg>
