<svg width="46" height="46" viewBox="0 0 46 46" fill="none" xmlns="http://www.w3.org/2000/svg">
    <path d="M0.5 0.5V45.5H45.5V0.5H0.5ZM11.5358 9.34674C13.3181 9.3668 15.0739 10.5964 15.1503 12.725C15.1884 14.6179 13.5389 16.0596 11.4891 16.1033H11.4397C9.67501 16.083 7.9517 14.8225 7.87183 12.725C7.89699 10.8533 9.47034 9.39114 11.5358 9.34674V9.34674ZM30.6575 18.2896C32.617 18.3018 34.4664 18.8831 35.9858 20.432C37.5648 22.193 38.0717 24.6211 38.1282 27.0897V38.3177H31.6572V27.8532C31.6428 25.8919 30.971 23.5078 28.3751 23.4285C26.8537 23.4447 25.7808 24.3287 25.0462 25.807C24.8456 26.2828 24.8168 26.8298 24.8072 27.3753V38.3177H18.3391C18.3638 32.8473 18.3978 27.3773 18.3857 21.9069C18.3857 20.3529 18.3708 19.3066 18.3391 18.7675H24.8072V21.5251C25.3563 20.7442 25.9652 20.0037 26.782 19.4075C27.8899 18.6168 29.2208 18.3137 30.6575 18.2896V18.2896ZM8.25361 18.7675H14.7218V38.3177H8.25361V18.7675V18.7675Z"
          fill="currentColor"/>
</svg>
